<?xml version="1.0" encoding="UTF-8" standalone="no"?>
<!DOCTYPE svg PUBLIC "-//W3C//DTD SVG 1.1//EN"
 "http://www.w3.org/Graphics/SVG/1.1/DTD/svg11.dtd">
<!-- Generated by graphviz version 12.1.2 (20240928.0832)
 -->
<!-- Title: batting_order_history Pages: 1 -->
<svg width="340pt" height="475pt"
 viewBox="0.00 0.00 339.63 474.80" xmlns="http://www.w3.org/2000/svg" xmlns:xlink="http://www.w3.org/1999/xlink">
<g id="graph0" class="graph" transform="scale(1 1) rotate(0) translate(4 470.8)">
<title>batting_order_history</title>
<polygon fill="white" stroke="none" points="-4,4 -4,-470.8 335.63,-470.8 335.63,4 -4,4"/>
<!-- batting_order_history -->
<g id="node1" class="node">
<title>batting_order_history</title>
<polygon fill="#efefef" stroke="none" points="46.2,-385 46.2,-420.6 285.43,-420.6 285.43,-385 46.2,-385"/>
<polygon fill="none" stroke="black" points="46.2,-385 46.2,-420.6 285.43,-420.6 285.43,-385 46.2,-385"/>
<text text-anchor="start" x="53.2" y="-398.4" font-family="Arial Bold" font-size="18.00">batting_order_history</text>
<text text-anchor="start" x="209.17" y="-398.4" font-family="Arial" font-size="14.00">    </text>
<text text-anchor="start" x="240.29" y="-398.4" font-family="Arial" font-size="14.00" fill="#666666">[table]</text>
<polygon fill="none" stroke="black" points="46.2,-354.2 46.2,-385 285.43,-385 285.43,-354.2 46.2,-354.2"/>
<text text-anchor="start" x="53.2" y="-366.4" font-family="Arial" font-size="14.00">game_id </text>
<text text-anchor="start" x="110.79" y="-366.4" font-family="Arial" font-size="14.00" fill="#666666">[INTEGER]</text>
<polygon fill="none" stroke="black" points="46.2,-323.4 46.2,-354.2 285.43,-354.2 285.43,-323.4 46.2,-323.4"/>
<text text-anchor="start" x="53.2" y="-335.6" font-family="Arial" font-size="14.00">start_inning_seq </text>
<text text-anchor="start" x="159.83" y="-335.6" font-family="Arial" font-size="14.00" fill="#666666">[INTEGER]</text>
<polygon fill="none" stroke="black" points="46.2,-292.6 46.2,-323.4 285.43,-323.4 285.43,-292.6 46.2,-292.6"/>
<text text-anchor="start" x="53.2" y="-304.8" font-family="Arial" font-size="14.00">start_inning_tb </text>
<text text-anchor="start" x="148.93" y="-304.8" font-family="Arial" font-size="14.00" fill="#666666">[TEXT]</text>
<polygon fill="none" stroke="black" points="46.2,-261.8 46.2,-292.6 285.43,-292.6 285.43,-261.8 46.2,-261.8"/>
<text text-anchor="start" x="53.2" y="-274" font-family="Arial" font-size="14.00">start_count_seq </text>
<text text-anchor="start" x="156.71" y="-274" font-family="Arial" font-size="14.00" fill="#666666">[INTEGER]</text>
<polygon fill="none" stroke="black" points="46.2,-231 46.2,-261.8 285.43,-261.8 285.43,-231 46.2,-231"/>
<text text-anchor="start" x="53.2" y="-243.2" font-family="Arial" font-size="14.00">end_inning_seq </text>
<text text-anchor="start" x="155.96" y="-243.2" font-family="Arial" font-size="14.00" fill="#666666">[INTEGER]</text>
<polygon fill="none" stroke="black" points="46.2,-200.2 46.2,-231 285.43,-231 285.43,-200.2 46.2,-200.2"/>
<text text-anchor="start" x="53.2" y="-212.4" font-family="Arial" font-size="14.00">end_inning_tb </text>
<text text-anchor="start" x="145.06" y="-212.4" font-family="Arial" font-size="14.00" fill="#666666">[TEXT]</text>
<polygon fill="none" stroke="black" points="46.2,-169.4 46.2,-200.2 285.43,-200.2 285.43,-169.4 46.2,-169.4"/>
<text text-anchor="start" x="53.2" y="-181.6" font-family="Arial" font-size="14.00">end_count_seq </text>
<text text-anchor="start" x="152.84" y="-181.6" font-family="Arial" font-size="14.00" fill="#666666">[INTEGER]</text>
<polygon fill="none" stroke="black" points="46.2,-138.6 46.2,-169.4 285.43,-169.4 285.43,-138.6 46.2,-138.6"/>
<text text-anchor="start" x="53.2" y="-150.8" font-family="Arial" font-size="14.00">team_id </text>
<text text-anchor="start" x="106.9" y="-150.8" font-family="Arial" font-size="14.00" fill="#666666">[INTEGER]</text>
<polygon fill="none" stroke="black" points="46.2,-107.8 46.2,-138.6 285.43,-138.6 285.43,-107.8 46.2,-107.8"/>
<text text-anchor="start" x="53.2" y="-120" font-family="Arial" font-size="14.00">index_num </text>
<text text-anchor="start" x="125.58" y="-120" font-family="Arial" font-size="14.00" fill="#666666">[INTEGER]</text>
<polygon fill="none" stroke="black" points="46.2,-77 46.2,-107.8 285.43,-107.8 285.43,-77 46.2,-77"/>
<text text-anchor="start" x="53.2" y="-89.2" font-family="Arial" font-size="14.00">position </text>
<text text-anchor="start" x="105.34" y="-89.2" font-family="Arial" font-size="14.00" fill="#666666">[TEXT]</text>
<polygon fill="none" stroke="black" points="46.2,-46.2 46.2,-77 285.43,-77 285.43,-46.2 46.2,-46.2"/>
<text text-anchor="start" x="53.2" y="-58.4" font-family="Arial" font-size="14.00">player_id </text>
<text text-anchor="start" x="113.9" y="-58.4" font-family="Arial" font-size="14.00" fill="#666666">[INTEGER]</text>
<polygon fill="none" stroke="black" stroke-width="3" points="44.7,-44.7 44.7,-422.1 286.93,-422.1 286.93,-44.7 44.7,-44.7"/>
</g>
</g>
</svg>
