<?xml version="1.0" encoding="UTF-8" standalone="no"?>
<!DOCTYPE svg PUBLIC "-//W3C//DTD SVG 1.1//EN"
 "http://www.w3.org/Graphics/SVG/1.1/DTD/svg11.dtd">
<!-- Generated by graphviz version 12.1.2 (20240928.0832)
 -->
<!-- Title: batter Pages: 1 -->
<svg width="238pt" height="290pt"
 viewBox="0.00 0.00 238.10 290.00" xmlns="http://www.w3.org/2000/svg" xmlns:xlink="http://www.w3.org/1999/xlink">
<g id="graph0" class="graph" transform="scale(1 1) rotate(0) translate(4 286)">
<title>batter</title>
<polygon fill="white" stroke="none" points="-4,4 -4,-286 234.1,-286 234.1,4 -4,4"/>
<!-- batter -->
<g id="node1" class="node">
<title>batter</title>
<polygon fill="#efefef" stroke="none" points="46.2,-200.2 46.2,-235.8 183.9,-235.8 183.9,-200.2 46.2,-200.2"/>
<polygon fill="none" stroke="black" points="46.2,-200.2 46.2,-235.8 183.9,-235.8 183.9,-200.2 46.2,-200.2"/>
<text text-anchor="start" x="59.94" y="-213.6" font-family="Arial Bold" font-size="18.00">batter</text>
<text text-anchor="start" x="100.91" y="-213.6" font-family="Arial" font-size="14.00">    </text>
<text text-anchor="start" x="132.03" y="-213.6" font-family="Arial" font-size="14.00" fill="#666666">[table]</text>
<polygon fill="none" stroke="black" points="46.2,-169.4 46.2,-200.2 183.9,-200.2 183.9,-169.4 46.2,-169.4"/>
<text text-anchor="start" x="53.2" y="-181.6" font-family="Arial" font-size="14.00">id </text>
<text text-anchor="start" x="67.99" y="-181.6" font-family="Arial" font-size="14.00" fill="#666666">[INTEGER]</text>
<polygon fill="none" stroke="black" points="46.2,-138.6 46.2,-169.4 183.9,-169.4 183.9,-138.6 46.2,-138.6"/>
<text text-anchor="start" x="53.2" y="-150.8" font-family="Arial" font-size="14.00">team_id </text>
<text text-anchor="start" x="106.9" y="-150.8" font-family="Arial" font-size="14.00" fill="#666666">[INTEGER]</text>
<polygon fill="none" stroke="black" points="46.2,-107.8 46.2,-138.6 183.9,-138.6 183.9,-107.8 46.2,-107.8"/>
<text text-anchor="start" x="53.2" y="-120" font-family="Arial" font-size="14.00">name </text>
<text text-anchor="start" x="92.11" y="-120" font-family="Arial" font-size="14.00" fill="#666666">[TEXT]</text>
<polygon fill="none" stroke="black" points="46.2,-77 46.2,-107.8 183.9,-107.8 183.9,-77 46.2,-77"/>
<text text-anchor="start" x="53.2" y="-89.2" font-family="Arial" font-size="14.00">mod_ba </text>
<text text-anchor="start" x="107.68" y="-89.2" font-family="Arial" font-size="14.00" fill="#666666">[REAL]</text>
<polygon fill="none" stroke="black" points="46.2,-46.2 46.2,-77 183.9,-77 183.9,-46.2 46.2,-46.2"/>
<text text-anchor="start" x="53.2" y="-58.4" font-family="Arial" font-size="14.00">mod_slg </text>
<text text-anchor="start" x="110.01" y="-58.4" font-family="Arial" font-size="14.00" fill="#666666">[REAL]</text>
<polygon fill="none" stroke="black" stroke-width="3" points="44.7,-44.7 44.7,-237.3 185.4,-237.3 185.4,-44.7 44.7,-44.7"/>
</g>
</g>
</svg>
