<?xml version="1.0" encoding="UTF-8" standalone="no"?>
<!DOCTYPE svg PUBLIC "-//W3C//DTD SVG 1.1//EN"
 "http://www.w3.org/Graphics/SVG/1.1/DTD/svg11.dtd">
<!-- Generated by graphviz version 12.1.2 (20240928.0832)
 -->
<!-- Title: batter_info Pages: 1 -->
<svg width="268pt" height="382pt"
 viewBox="0.00 0.00 268.49 382.40" xmlns="http://www.w3.org/2000/svg" xmlns:xlink="http://www.w3.org/1999/xlink">
<g id="graph0" class="graph" transform="scale(1 1) rotate(0) translate(4 378.4)">
<title>batter_info</title>
<polygon fill="white" stroke="none" points="-4,4 -4,-378.4 264.49,-378.4 264.49,4 -4,4"/>
<!-- batter_info -->
<g id="node1" class="node">
<title>batter_info</title>
<polygon fill="#efefef" stroke="none" points="46.2,-292.6 46.2,-328.2 214.29,-328.2 214.29,-292.6 46.2,-292.6"/>
<polygon fill="none" stroke="black" points="46.2,-292.6 46.2,-328.2 214.29,-328.2 214.29,-292.6 46.2,-292.6"/>
<text text-anchor="start" x="56.13" y="-306" font-family="Arial Bold" font-size="18.00">batter_info</text>
<text text-anchor="start" x="135.1" y="-306" font-family="Arial" font-size="14.00">    </text>
<text text-anchor="start" x="166.22" y="-306" font-family="Arial" font-size="14.00" fill="#666666">[table]</text>
<polygon fill="none" stroke="black" points="46.2,-261.8 46.2,-292.6 214.29,-292.6 214.29,-261.8 46.2,-261.8"/>
<text text-anchor="start" x="53.2" y="-274" font-family="Arial" font-size="14.00">player_id </text>
<text text-anchor="start" x="113.9" y="-274" font-family="Arial" font-size="14.00" fill="#666666">[INTEGER]</text>
<polygon fill="none" stroke="black" points="46.2,-231 46.2,-261.8 214.29,-261.8 214.29,-231 46.2,-231"/>
<text text-anchor="start" x="53.2" y="-243.2" font-family="Arial" font-size="14.00">batting_side </text>
<text text-anchor="start" x="132.59" y="-243.2" font-family="Arial" font-size="14.00" fill="#666666">[TEXT]</text>
<polygon fill="none" stroke="black" points="46.2,-200.2 46.2,-231 214.29,-231 214.29,-200.2 46.2,-200.2"/>
<text text-anchor="start" x="53.2" y="-212.4" font-family="Arial" font-size="14.00">swing_speed </text>
<text text-anchor="start" x="138.81" y="-212.4" font-family="Arial" font-size="14.00" fill="#666666">[REAL]</text>
<polygon fill="none" stroke="black" points="46.2,-169.4 46.2,-200.2 214.29,-200.2 214.29,-169.4 46.2,-169.4"/>
<text text-anchor="start" x="53.2" y="-181.6" font-family="Arial" font-size="14.00">weight_pull </text>
<text text-anchor="start" x="127.14" y="-181.6" font-family="Arial" font-size="14.00" fill="#666666">[REAL]</text>
<polygon fill="none" stroke="black" points="46.2,-138.6 46.2,-169.4 214.29,-169.4 214.29,-138.6 46.2,-138.6"/>
<text text-anchor="start" x="53.2" y="-150.8" font-family="Arial" font-size="14.00">weight_center </text>
<text text-anchor="start" x="144.25" y="-150.8" font-family="Arial" font-size="14.00" fill="#666666">[REAL]</text>
<polygon fill="none" stroke="black" points="46.2,-107.8 46.2,-138.6 214.29,-138.6 214.29,-107.8 46.2,-107.8"/>
<text text-anchor="start" x="53.2" y="-120" font-family="Arial" font-size="14.00">weight_opposite </text>
<text text-anchor="start" x="158.28" y="-120" font-family="Arial" font-size="14.00" fill="#666666">[REAL]</text>
<polygon fill="none" stroke="black" points="46.2,-77 46.2,-107.8 214.29,-107.8 214.29,-77 46.2,-77"/>
<text text-anchor="start" x="53.2" y="-89.2" font-family="Arial" font-size="14.00">weight_foul_left </text>
<text text-anchor="start" x="154.38" y="-89.2" font-family="Arial" font-size="14.00" fill="#666666">[REAL]</text>
<polygon fill="none" stroke="black" points="46.2,-46.2 46.2,-77 214.29,-77 214.29,-46.2 46.2,-46.2"/>
<text text-anchor="start" x="53.2" y="-58.4" font-family="Arial" font-size="14.00">weight_foul_right </text>
<text text-anchor="start" x="162.94" y="-58.4" font-family="Arial" font-size="14.00" fill="#666666">[REAL]</text>
<polygon fill="none" stroke="black" stroke-width="3" points="44.7,-44.7 44.7,-329.7 215.79,-329.7 215.79,-44.7 44.7,-44.7"/>
</g>
</g>
</svg>
