<?xml version="1.0" encoding="UTF-8" standalone="no"?>
<!DOCTYPE svg PUBLIC "-//W3C//DTD SVG 1.1//EN"
 "http://www.w3.org/Graphics/SVG/1.1/DTD/svg11.dtd">
<!-- Generated by graphviz version 12.1.2 (20240928.0832)
 -->
<!-- Title: defensive_skill Pages: 1 -->
<svg width="293pt" height="228pt"
 viewBox="0.00 0.00 292.63 228.40" xmlns="http://www.w3.org/2000/svg" xmlns:xlink="http://www.w3.org/1999/xlink">
<g id="graph0" class="graph" transform="scale(1 1) rotate(0) translate(4 224.4)">
<title>defensive_skill</title>
<polygon fill="white" stroke="none" points="-4,4 -4,-224.4 288.63,-224.4 288.63,4 -4,4"/>
<!-- defensive_skill -->
<g id="node1" class="node">
<title>defensive_skill</title>
<polygon fill="#efefef" stroke="none" points="46.2,-138.6 46.2,-174.2 238.43,-174.2 238.43,-138.6 46.2,-138.6"/>
<polygon fill="none" stroke="black" points="46.2,-138.6 46.2,-174.2 238.43,-174.2 238.43,-138.6 46.2,-138.6"/>
<text text-anchor="start" x="53.2" y="-152" font-family="Arial Bold" font-size="18.00">defensive_skill</text>
<text text-anchor="start" x="162.18" y="-152" font-family="Arial" font-size="14.00">    </text>
<text text-anchor="start" x="193.29" y="-152" font-family="Arial" font-size="14.00" fill="#666666">[table]</text>
<polygon fill="none" stroke="black" points="46.2,-107.8 46.2,-138.6 238.43,-138.6 238.43,-107.8 46.2,-107.8"/>
<text text-anchor="start" x="53.2" y="-120" font-family="Arial" font-size="14.00">player_id </text>
<text text-anchor="start" x="113.9" y="-120" font-family="Arial" font-size="14.00" fill="#666666">[INTEGER]</text>
<polygon fill="none" stroke="black" points="46.2,-77 46.2,-107.8 238.43,-107.8 238.43,-77 46.2,-77"/>
<text text-anchor="start" x="53.2" y="-89.2" font-family="Arial" font-size="14.00">position </text>
<text text-anchor="start" x="105.34" y="-89.2" font-family="Arial" font-size="14.00" fill="#666666">[TEXT]</text>
<polygon fill="none" stroke="black" points="46.2,-46.2 46.2,-77 238.43,-77 238.43,-46.2 46.2,-46.2"/>
<text text-anchor="start" x="53.2" y="-58.4" font-family="Arial" font-size="14.00">mod_uzr </text>
<text text-anchor="start" x="111.56" y="-58.4" font-family="Arial" font-size="14.00" fill="#666666">[REAL]</text>
<polygon fill="none" stroke="black" stroke-width="3" points="44.7,-44.7 44.7,-175.7 239.93,-175.7 239.93,-44.7 44.7,-44.7"/>
</g>
</g>
</svg>
