<?xml version="1.0" encoding="UTF-8" standalone="no"?>
<!DOCTYPE svg PUBLIC "-//W3C//DTD SVG 1.1//EN"
 "http://www.w3.org/Graphics/SVG/1.1/DTD/svg11.dtd">
<!-- Generated by graphviz version 12.1.2 (20240928.0832)
 -->
<!-- Title: gamma_param Pages: 1 -->
<svg width="291pt" height="321pt"
 viewBox="0.00 0.00 290.61 320.80" xmlns="http://www.w3.org/2000/svg" xmlns:xlink="http://www.w3.org/1999/xlink">
<g id="graph0" class="graph" transform="scale(1 1) rotate(0) translate(4 316.8)">
<title>gamma_param</title>
<polygon fill="white" stroke="none" points="-4,4 -4,-316.8 286.61,-316.8 286.61,4 -4,4"/>
<!-- gamma_param -->
<g id="node1" class="node">
<title>gamma_param</title>
<polygon fill="#efefef" stroke="none" points="46.2,-231 46.2,-266.6 236.41,-266.6 236.41,-231 46.2,-231"/>
<polygon fill="none" stroke="black" points="46.2,-231 46.2,-266.6 236.41,-266.6 236.41,-231 46.2,-231"/>
<text text-anchor="start" x="53.2" y="-244.4" font-family="Arial Bold" font-size="18.00">gamma_param</text>
<text text-anchor="start" x="160.15" y="-244.4" font-family="Arial" font-size="14.00">    </text>
<text text-anchor="start" x="191.27" y="-244.4" font-family="Arial" font-size="14.00" fill="#666666">[table]</text>
<polygon fill="none" stroke="black" points="46.2,-200.2 46.2,-231 236.41,-231 236.41,-200.2 46.2,-200.2"/>
<text text-anchor="start" x="53.2" y="-212.4" font-family="Arial" font-size="14.00">category1 </text>
<text text-anchor="start" x="118.57" y="-212.4" font-family="Arial" font-size="14.00" fill="#666666">[TEXT]</text>
<polygon fill="none" stroke="black" points="46.2,-169.4 46.2,-200.2 236.41,-200.2 236.41,-169.4 46.2,-169.4"/>
<text text-anchor="start" x="53.2" y="-181.6" font-family="Arial" font-size="14.00">category2 </text>
<text text-anchor="start" x="118.57" y="-181.6" font-family="Arial" font-size="14.00" fill="#666666">[TEXT]</text>
<polygon fill="none" stroke="black" points="46.2,-138.6 46.2,-169.4 236.41,-169.4 236.41,-138.6 46.2,-138.6"/>
<text text-anchor="start" x="53.2" y="-150.8" font-family="Arial" font-size="14.00">name </text>
<text text-anchor="start" x="92.11" y="-150.8" font-family="Arial" font-size="14.00" fill="#666666">[TEXT]</text>
<polygon fill="none" stroke="black" points="46.2,-107.8 46.2,-138.6 236.41,-138.6 236.41,-107.8 46.2,-107.8"/>
<text text-anchor="start" x="53.2" y="-120" font-family="Arial" font-size="14.00">shape </text>
<text text-anchor="start" x="95.23" y="-120" font-family="Arial" font-size="14.00" fill="#666666">[REAL]</text>
<polygon fill="none" stroke="black" points="46.2,-77 46.2,-107.8 236.41,-107.8 236.41,-77 46.2,-77"/>
<text text-anchor="start" x="53.2" y="-89.2" font-family="Arial" font-size="14.00">scale </text>
<text text-anchor="start" x="89.77" y="-89.2" font-family="Arial" font-size="14.00" fill="#666666">[REAL]</text>
<polygon fill="none" stroke="black" points="46.2,-46.2 46.2,-77 236.41,-77 236.41,-46.2 46.2,-46.2"/>
<text text-anchor="start" x="53.2" y="-58.4" font-family="Arial" font-size="14.00">offset </text>
<text text-anchor="start" x="91.33" y="-58.4" font-family="Arial" font-size="14.00" fill="#666666">[REAL]</text>
<polygon fill="none" stroke="black" stroke-width="3" points="44.7,-44.7 44.7,-268.1 237.91,-268.1 237.91,-44.7 44.7,-44.7"/>
</g>
</g>
</svg>
