<?xml version="1.0" encoding="UTF-8" standalone="no"?>
<!DOCTYPE svg PUBLIC "-//W3C//DTD SVG 1.1//EN"
 "http://www.w3.org/Graphics/SVG/1.1/DTD/svg11.dtd">
<!-- Generated by graphviz version 12.1.2 (20240928.0832)
 -->
<!-- Title: pitcher_info Pages: 1 -->
<svg width="295pt" height="629pt"
 viewBox="0.00 0.00 294.92 628.80" xmlns="http://www.w3.org/2000/svg" xmlns:xlink="http://www.w3.org/1999/xlink">
<g id="graph0" class="graph" transform="scale(1 1) rotate(0) translate(4 624.8)">
<title>pitcher_info</title>
<polygon fill="white" stroke="none" points="-4,4 -4,-624.8 290.92,-624.8 290.92,4 -4,4"/>
<!-- pitcher_info -->
<g id="node1" class="node">
<title>pitcher_info</title>
<polygon fill="#efefef" stroke="none" points="46.2,-539 46.2,-574.6 240.72,-574.6 240.72,-539 46.2,-539"/>
<polygon fill="none" stroke="black" points="46.2,-539 46.2,-574.6 240.72,-574.6 240.72,-539 46.2,-539"/>
<text text-anchor="start" x="64.85" y="-552.4" font-family="Arial Bold" font-size="18.00">pitcher_info</text>
<text text-anchor="start" x="152.82" y="-552.4" font-family="Arial" font-size="14.00">    </text>
<text text-anchor="start" x="183.94" y="-552.4" font-family="Arial" font-size="14.00" fill="#666666">[table]</text>
<polygon fill="none" stroke="black" points="46.2,-508.2 46.2,-539 240.72,-539 240.72,-508.2 46.2,-508.2"/>
<text text-anchor="start" x="53.2" y="-520.4" font-family="Arial" font-size="14.00">player_id </text>
<text text-anchor="start" x="113.9" y="-520.4" font-family="Arial" font-size="14.00" fill="#666666">[INTEGER]</text>
<polygon fill="none" stroke="black" points="46.2,-477.4 46.2,-508.2 240.72,-508.2 240.72,-477.4 46.2,-477.4"/>
<text text-anchor="start" x="53.2" y="-489.6" font-family="Arial" font-size="14.00">height </text>
<text text-anchor="start" x="95.23" y="-489.6" font-family="Arial" font-size="14.00" fill="#666666">[REAL]</text>
<polygon fill="none" stroke="black" points="46.2,-446.6 46.2,-477.4 240.72,-477.4 240.72,-446.6 46.2,-446.6"/>
<text text-anchor="start" x="53.2" y="-458.8" font-family="Arial" font-size="14.00">extension </text>
<text text-anchor="start" x="117.02" y="-458.8" font-family="Arial" font-size="14.00" fill="#666666">[REAL]</text>
<polygon fill="none" stroke="black" points="46.2,-415.8 46.2,-446.6 240.72,-446.6 240.72,-415.8 46.2,-415.8"/>
<text text-anchor="start" x="53.2" y="-428" font-family="Arial" font-size="14.00">throw_side </text>
<text text-anchor="start" x="124.79" y="-428" font-family="Arial" font-size="14.00" fill="#666666">[TEXT]</text>
<polygon fill="none" stroke="black" points="46.2,-385 46.2,-415.8 240.72,-415.8 240.72,-385 46.2,-385"/>
<text text-anchor="start" x="53.2" y="-397.2" font-family="Arial" font-size="14.00">arm_slot </text>
<text text-anchor="start" x="110.77" y="-397.2" font-family="Arial" font-size="14.00" fill="#666666">[TEXT]</text>
<polygon fill="none" stroke="black" points="46.2,-354.2 46.2,-385 240.72,-385 240.72,-354.2 46.2,-354.2"/>
<text text-anchor="start" x="53.2" y="-366.4" font-family="Arial" font-size="14.00">pitcher_style </text>
<text text-anchor="start" x="135.68" y="-366.4" font-family="Arial" font-size="14.00" fill="#666666">[TEXT]</text>
<polygon fill="none" stroke="black" points="46.2,-323.4 46.2,-354.2 240.72,-354.2 240.72,-323.4 46.2,-323.4"/>
<text text-anchor="start" x="53.2" y="-335.6" font-family="Arial" font-size="14.00">velocity </text>
<text text-anchor="start" x="103.77" y="-335.6" font-family="Arial" font-size="14.00" fill="#666666">[REAL]</text>
<polygon fill="none" stroke="black" points="46.2,-292.6 46.2,-323.4 240.72,-323.4 240.72,-292.6 46.2,-292.6"/>
<text text-anchor="start" x="53.2" y="-304.8" font-family="Arial" font-size="14.00">spin_rate </text>
<text text-anchor="start" x="114.68" y="-304.8" font-family="Arial" font-size="14.00" fill="#666666">[REAL]</text>
<polygon fill="none" stroke="black" points="46.2,-261.8 46.2,-292.6 240.72,-292.6 240.72,-261.8 46.2,-261.8"/>
<text text-anchor="start" x="53.2" y="-274" font-family="Arial" font-size="14.00">control </text>
<text text-anchor="start" x="99.11" y="-274" font-family="Arial" font-size="14.00" fill="#666666">[REAL]</text>
<polygon fill="none" stroke="black" points="46.2,-231 46.2,-261.8 240.72,-261.8 240.72,-231 46.2,-231"/>
<text text-anchor="start" x="53.2" y="-243.2" font-family="Arial" font-size="14.00">stamina </text>
<text text-anchor="start" x="106.11" y="-243.2" font-family="Arial" font-size="14.00" fill="#666666">[REAL]</text>
<polygon fill="none" stroke="black" points="46.2,-200.2 46.2,-231 240.72,-231 240.72,-200.2 46.2,-200.2"/>
<text text-anchor="start" x="53.2" y="-212.4" font-family="Arial" font-size="14.00">injury_proneness </text>
<text text-anchor="start" x="163.71" y="-212.4" font-family="Arial" font-size="14.00" fill="#666666">[REAL]</text>
<polygon fill="none" stroke="black" points="46.2,-169.4 46.2,-200.2 240.72,-200.2 240.72,-169.4 46.2,-169.4"/>
<text text-anchor="start" x="53.2" y="-181.6" font-family="Arial" font-size="14.00">clutch </text>
<text text-anchor="start" x="93.66" y="-181.6" font-family="Arial" font-size="14.00" fill="#666666">[REAL]</text>
<polygon fill="none" stroke="black" points="46.2,-138.6 46.2,-169.4 240.72,-169.4 240.72,-138.6 46.2,-138.6"/>
<text text-anchor="start" x="53.2" y="-150.8" font-family="Arial" font-size="14.00">hpp </text>
<text text-anchor="start" x="80.45" y="-150.8" font-family="Arial" font-size="14.00" fill="#666666">[REAL]</text>
<polygon fill="none" stroke="black" points="46.2,-107.8 46.2,-138.6 240.72,-138.6 240.72,-107.8 46.2,-107.8"/>
<text text-anchor="start" x="53.2" y="-120" font-family="Arial" font-size="14.00">platoon_splitting </text>
<text text-anchor="start" x="158.28" y="-120" font-family="Arial" font-size="14.00" fill="#666666">[REAL]</text>
<polygon fill="none" stroke="black" points="46.2,-77 46.2,-107.8 240.72,-107.8 240.72,-77 46.2,-77"/>
<text text-anchor="start" x="53.2" y="-89.2" font-family="Arial" font-size="14.00">delivery_motion_time </text>
<text text-anchor="start" x="189.37" y="-89.2" font-family="Arial" font-size="14.00" fill="#666666">[REAL]</text>
<polygon fill="none" stroke="black" points="46.2,-46.2 46.2,-77 240.72,-77 240.72,-46.2 46.2,-46.2"/>
<text text-anchor="start" x="53.2" y="-58.4" font-family="Arial" font-size="14.00">consistency </text>
<text text-anchor="start" x="130.23" y="-58.4" font-family="Arial" font-size="14.00" fill="#666666">[REAL]</text>
<polygon fill="none" stroke="black" stroke-width="3" points="44.7,-44.7 44.7,-576.1 242.22,-576.1 242.22,-44.7 44.7,-44.7"/>
</g>
</g>
</svg>
