<?xml version="1.0" encoding="UTF-8" standalone="no"?>
<!DOCTYPE svg PUBLIC "-//W3C//DTD SVG 1.1//EN"
 "http://www.w3.org/Graphics/SVG/1.1/DTD/svg11.dtd">
<!-- Generated by graphviz version 12.1.2 (20240928.0832)
 -->
<!-- Title: statbb.db Pages: 1 -->
<svg width="2154pt" height="469pt"
 viewBox="0.00 0.00 2154.35 468.80" xmlns="http://www.w3.org/2000/svg" xmlns:xlink="http://www.w3.org/1999/xlink">
<g id="graph0" class="graph" transform="scale(1 1) rotate(0) translate(4 464.8)">
<title>statbb.db</title>
<polygon fill="white" stroke="none" points="-4,4 -4,-464.8 2150.35,-464.8 2150.35,4 -4,4"/>
<!-- team -->
<g id="node1" class="node">
<title>team</title>
<polygon fill="#efefef" stroke="none" points="43.2,-258.8 43.2,-294.4 191.82,-294.4 191.82,-258.8 43.2,-258.8"/>
<polygon fill="none" stroke="black" points="43.2,-258.8 43.2,-294.4 191.82,-294.4 191.82,-258.8 43.2,-258.8"/>
<text text-anchor="start" x="65.39" y="-272.2" font-family="Arial Bold" font-size="18.00">team</text>
<text text-anchor="start" x="100.37" y="-272.2" font-family="Arial" font-size="14.00">    </text>
<text text-anchor="start" x="131.49" y="-272.2" font-family="Arial" font-size="14.00" fill="#666666">[table]</text>
<polygon fill="none" stroke="black" points="43.2,-228 43.2,-258.8 191.82,-258.8 191.82,-228 43.2,-228"/>
<text text-anchor="start" x="50.2" y="-240.2" font-family="Arial" font-size="14.00">id </text>
<text text-anchor="start" x="64.99" y="-240.2" font-family="Arial" font-size="14.00" fill="#666666">[INTEGER]</text>
<polygon fill="none" stroke="black" points="43.2,-197.2 43.2,-228 191.82,-228 191.82,-197.2 43.2,-197.2"/>
<text text-anchor="start" x="50.2" y="-209.4" font-family="Arial" font-size="14.00">league_id </text>
<text text-anchor="start" x="114.81" y="-209.4" font-family="Arial" font-size="14.00" fill="#666666">[INTEGER]</text>
<polygon fill="none" stroke="black" points="43.2,-166.4 43.2,-197.2 191.82,-197.2 191.82,-166.4 43.2,-166.4"/>
<text text-anchor="start" x="50.2" y="-178.6" font-family="Arial" font-size="14.00">name </text>
<text text-anchor="start" x="89.11" y="-178.6" font-family="Arial" font-size="14.00" fill="#666666">[TEXT]</text>
</g>
<!-- league -->
<g id="node2" class="node">
<title>league</title>
<polygon fill="#efefef" stroke="none" points="296.4,-243.4 296.4,-279 426.62,-279 426.62,-243.4 296.4,-243.4"/>
<polygon fill="none" stroke="black" points="296.4,-243.4 296.4,-279 426.62,-279 426.62,-243.4 296.4,-243.4"/>
<text text-anchor="start" x="303.4" y="-256.8" font-family="Arial Bold" font-size="18.00">league</text>
<text text-anchor="start" x="350.37" y="-256.8" font-family="Arial" font-size="14.00">    </text>
<text text-anchor="start" x="381.48" y="-256.8" font-family="Arial" font-size="14.00" fill="#666666">[table]</text>
<polygon fill="none" stroke="black" points="296.4,-212.6 296.4,-243.4 426.62,-243.4 426.62,-212.6 296.4,-212.6"/>
<text text-anchor="start" x="303.4" y="-224.8" font-family="Arial" font-size="14.00">id </text>
<text text-anchor="start" x="318.18" y="-224.8" font-family="Arial" font-size="14.00" fill="#666666">[INTEGER]</text>
<polygon fill="none" stroke="black" points="296.4,-181.8 296.4,-212.6 426.62,-212.6 426.62,-181.8 296.4,-181.8"/>
<text text-anchor="start" x="303.4" y="-194" font-family="Arial" font-size="14.00">name </text>
<text text-anchor="start" x="342.31" y="-194" font-family="Arial" font-size="14.00" fill="#666666">[TEXT]</text>
</g>
<!-- game_season -->
<g id="node3" class="node">
<title>game_season</title>
<polygon fill="#efefef" stroke="none" points="530.8,-289.6 530.8,-325.2 736.22,-325.2 736.22,-289.6 530.8,-289.6"/>
<polygon fill="none" stroke="black" points="530.8,-289.6 530.8,-325.2 736.22,-325.2 736.22,-289.6 530.8,-289.6"/>
<text text-anchor="start" x="550.9" y="-303" font-family="Arial Bold" font-size="18.00">game_season</text>
<text text-anchor="start" x="646.87" y="-303" font-family="Arial" font-size="14.00">    </text>
<text text-anchor="start" x="677.98" y="-303" font-family="Arial" font-size="14.00" fill="#666666">[table]</text>
<polygon fill="none" stroke="black" points="530.8,-258.8 530.8,-289.6 736.22,-289.6 736.22,-258.8 530.8,-258.8"/>
<text text-anchor="start" x="537.8" y="-271" font-family="Arial" font-size="14.00">start_season </text>
<text text-anchor="start" x="621.85" y="-271" font-family="Arial" font-size="14.00" fill="#666666">[INTEGER]</text>
<polygon fill="none" stroke="black" points="530.8,-228 530.8,-258.8 736.22,-258.8 736.22,-228 530.8,-228"/>
<text text-anchor="start" x="537.8" y="-240.2" font-family="Arial" font-size="14.00">start_date </text>
<text text-anchor="start" x="603.95" y="-240.2" font-family="Arial" font-size="14.00" fill="#666666">[TEXT]</text>
<polygon fill="none" stroke="black" points="530.8,-197.2 530.8,-228 736.22,-228 736.22,-197.2 530.8,-197.2"/>
<text text-anchor="start" x="537.8" y="-209.4" font-family="Arial" font-size="14.00">current_season </text>
<text text-anchor="start" x="638.19" y="-209.4" font-family="Arial" font-size="14.00" fill="#666666">[INTEGER]</text>
<polygon fill="none" stroke="black" points="530.8,-166.4 530.8,-197.2 736.22,-197.2 736.22,-166.4 530.8,-166.4"/>
<text text-anchor="start" x="537.8" y="-178.6" font-family="Arial" font-size="14.00">current_round_seq </text>
<text text-anchor="start" x="659.21" y="-178.6" font-family="Arial" font-size="14.00" fill="#666666">[INTEGER]</text>
<polygon fill="none" stroke="black" points="530.8,-135.6 530.8,-166.4 736.22,-166.4 736.22,-135.6 530.8,-135.6"/>
<text text-anchor="start" x="537.8" y="-147.8" font-family="Arial" font-size="14.00">scheduled_season </text>
<text text-anchor="start" x="658.45" y="-147.8" font-family="Arial" font-size="14.00" fill="#666666">[INTEGER]</text>
</g>
<!-- game_round -->
<g id="node4" class="node">
<title>game_round</title>
<polygon fill="#efefef" stroke="none" points="840.9,-274.2 840.9,-309.8 1014.12,-309.8 1014.12,-274.2 840.9,-274.2"/>
<polygon fill="none" stroke="black" points="840.9,-274.2 840.9,-309.8 1014.12,-309.8 1014.12,-274.2 840.9,-274.2"/>
<text text-anchor="start" x="847.9" y="-287.6" font-family="Arial Bold" font-size="18.00">game_round</text>
<text text-anchor="start" x="937.87" y="-287.6" font-family="Arial" font-size="14.00">    </text>
<text text-anchor="start" x="968.99" y="-287.6" font-family="Arial" font-size="14.00" fill="#666666">[table]</text>
<polygon fill="none" stroke="black" points="840.9,-243.4 840.9,-274.2 1014.12,-274.2 1014.12,-243.4 840.9,-243.4"/>
<text text-anchor="start" x="847.9" y="-255.6" font-family="Arial" font-size="14.00">id </text>
<text text-anchor="start" x="862.68" y="-255.6" font-family="Arial" font-size="14.00" fill="#666666">[INTEGER]</text>
<polygon fill="none" stroke="black" points="840.9,-212.6 840.9,-243.4 1014.12,-243.4 1014.12,-212.6 840.9,-212.6"/>
<text text-anchor="start" x="847.9" y="-224.8" font-family="Arial" font-size="14.00">season </text>
<text text-anchor="start" x="896.93" y="-224.8" font-family="Arial" font-size="14.00" fill="#666666">[INTEGER]</text>
<polygon fill="none" stroke="black" points="840.9,-181.8 840.9,-212.6 1014.12,-212.6 1014.12,-181.8 840.9,-181.8"/>
<text text-anchor="start" x="847.9" y="-194" font-family="Arial" font-size="14.00">seq </text>
<text text-anchor="start" x="874.36" y="-194" font-family="Arial" font-size="14.00" fill="#666666">[INTEGER]</text>
<polygon fill="none" stroke="black" points="840.9,-151 840.9,-181.8 1014.12,-181.8 1014.12,-151 840.9,-151"/>
<text text-anchor="start" x="847.9" y="-163.2" font-family="Arial" font-size="14.00">date </text>
<text text-anchor="start" x="879.03" y="-163.2" font-family="Arial" font-size="14.00" fill="#666666">[TEXT]</text>
</g>
<!-- inning -->
<g id="node5" class="node">
<title>inning</title>
<polygon fill="#efefef" stroke="none" points="1118.71,-274.2 1118.71,-309.8 1260.31,-309.8 1260.31,-274.2 1118.71,-274.2"/>
<polygon fill="none" stroke="black" points="1118.71,-274.2 1118.71,-309.8 1260.31,-309.8 1260.31,-274.2 1118.71,-274.2"/>
<text text-anchor="start" x="1131.88" y="-287.6" font-family="Arial Bold" font-size="18.00">inning</text>
<text text-anchor="start" x="1177.88" y="-287.6" font-family="Arial" font-size="14.00">    </text>
<text text-anchor="start" x="1209" y="-287.6" font-family="Arial" font-size="14.00" fill="#666666">[table]</text>
<polygon fill="none" stroke="black" points="1118.71,-243.4 1118.71,-274.2 1260.31,-274.2 1260.31,-243.4 1118.71,-243.4"/>
<text text-anchor="start" x="1125.71" y="-255.6" font-family="Arial" font-size="14.00">game_id </text>
<text text-anchor="start" x="1183.3" y="-255.6" font-family="Arial" font-size="14.00" fill="#666666">[INTEGER]</text>
<polygon fill="none" stroke="black" points="1118.71,-212.6 1118.71,-243.4 1260.31,-243.4 1260.31,-212.6 1118.71,-212.6"/>
<text text-anchor="start" x="1125.71" y="-224.8" font-family="Arial" font-size="14.00">seq </text>
<text text-anchor="start" x="1152.17" y="-224.8" font-family="Arial" font-size="14.00" fill="#666666">[INTEGER]</text>
<polygon fill="none" stroke="black" points="1118.71,-181.8 1118.71,-212.6 1260.31,-212.6 1260.31,-181.8 1118.71,-181.8"/>
<text text-anchor="start" x="1125.71" y="-194" font-family="Arial" font-size="14.00">tb </text>
<text text-anchor="start" x="1141.28" y="-194" font-family="Arial" font-size="14.00" fill="#666666">[TEXT]</text>
<polygon fill="none" stroke="black" points="1118.71,-151 1118.71,-181.8 1260.31,-181.8 1260.31,-151 1118.71,-151"/>
<text text-anchor="start" x="1125.71" y="-163.2" font-family="Arial" font-size="14.00">point </text>
<text text-anchor="start" x="1159.96" y="-163.2" font-family="Arial" font-size="14.00" fill="#666666">[INTEGER]</text>
</g>
<!-- count -->
<g id="node6" class="node">
<title>count</title>
<polygon fill="#efefef" stroke="none" points="1365.18,-382 1365.18,-417.6 1569.84,-417.6 1569.84,-382 1365.18,-382"/>
<polygon fill="none" stroke="black" points="1365.18,-382 1365.18,-417.6 1569.84,-417.6 1569.84,-382 1365.18,-382"/>
<text text-anchor="start" x="1412.89" y="-395.4" font-family="Arial Bold" font-size="18.00">count</text>
<text text-anchor="start" x="1452.88" y="-395.4" font-family="Arial" font-size="14.00">    </text>
<text text-anchor="start" x="1483.99" y="-395.4" font-family="Arial" font-size="14.00" fill="#666666">[table]</text>
<polygon fill="none" stroke="black" points="1365.18,-351.2 1365.18,-382 1569.84,-382 1569.84,-351.2 1365.18,-351.2"/>
<text text-anchor="start" x="1372.18" y="-363.4" font-family="Arial" font-size="14.00">game_id </text>
<text text-anchor="start" x="1429.78" y="-363.4" font-family="Arial" font-size="14.00" fill="#666666">[INTEGER]</text>
<polygon fill="none" stroke="black" points="1365.18,-320.4 1365.18,-351.2 1569.84,-351.2 1569.84,-320.4 1365.18,-320.4"/>
<text text-anchor="start" x="1372.18" y="-332.6" font-family="Arial" font-size="14.00">inning_seq </text>
<text text-anchor="start" x="1443.8" y="-332.6" font-family="Arial" font-size="14.00" fill="#666666">[INTEGER]</text>
<polygon fill="none" stroke="black" points="1365.18,-289.6 1365.18,-320.4 1569.84,-320.4 1569.84,-289.6 1365.18,-289.6"/>
<text text-anchor="start" x="1372.18" y="-301.8" font-family="Arial" font-size="14.00">inning_tb </text>
<text text-anchor="start" x="1432.9" y="-301.8" font-family="Arial" font-size="14.00" fill="#666666">[TEXT]</text>
<polygon fill="none" stroke="black" points="1365.18,-258.8 1365.18,-289.6 1569.84,-289.6 1569.84,-258.8 1365.18,-258.8"/>
<text text-anchor="start" x="1372.18" y="-271" font-family="Arial" font-size="14.00">seq </text>
<text text-anchor="start" x="1398.64" y="-271" font-family="Arial" font-size="14.00" fill="#666666">[INTEGER]</text>
<polygon fill="none" stroke="black" points="1365.18,-228 1365.18,-258.8 1569.84,-258.8 1569.84,-228 1365.18,-228"/>
<text text-anchor="start" x="1372.18" y="-240.2" font-family="Arial" font-size="14.00">is_first_runner </text>
<text text-anchor="start" x="1464.78" y="-240.2" font-family="Arial" font-size="14.00" fill="#666666">[BOOLEAN]</text>
<polygon fill="none" stroke="black" points="1365.18,-197.2 1365.18,-228 1569.84,-228 1569.84,-197.2 1365.18,-197.2"/>
<text text-anchor="start" x="1372.18" y="-209.4" font-family="Arial" font-size="14.00">is_second_runner </text>
<text text-anchor="start" x="1487.37" y="-209.4" font-family="Arial" font-size="14.00" fill="#666666">[BOOLEAN]</text>
<polygon fill="none" stroke="black" points="1365.18,-166.4 1365.18,-197.2 1569.84,-197.2 1569.84,-166.4 1365.18,-166.4"/>
<text text-anchor="start" x="1372.18" y="-178.6" font-family="Arial" font-size="14.00">is_third_runner </text>
<text text-anchor="start" x="1469.46" y="-178.6" font-family="Arial" font-size="14.00" fill="#666666">[BOOLEAN]</text>
<polygon fill="none" stroke="black" points="1365.18,-135.6 1365.18,-166.4 1569.84,-166.4 1569.84,-135.6 1365.18,-135.6"/>
<text text-anchor="start" x="1372.18" y="-147.8" font-family="Arial" font-size="14.00">batter_id </text>
<text text-anchor="start" x="1430.55" y="-147.8" font-family="Arial" font-size="14.00" fill="#666666">[INTEGER]</text>
<polygon fill="none" stroke="black" points="1365.18,-104.8 1365.18,-135.6 1569.84,-135.6 1569.84,-104.8 1365.18,-104.8"/>
<text text-anchor="start" x="1372.18" y="-117" font-family="Arial" font-size="14.00">result </text>
<text text-anchor="start" x="1410.31" y="-117" font-family="Arial" font-size="14.00" fill="#666666">[TEXT]</text>
<polygon fill="none" stroke="black" points="1365.18,-74 1365.18,-104.8 1569.84,-104.8 1569.84,-74 1365.18,-74"/>
<text text-anchor="start" x="1372.18" y="-86.2" font-family="Arial" font-size="14.00">point </text>
<text text-anchor="start" x="1406.43" y="-86.2" font-family="Arial" font-size="14.00" fill="#666666">[INTEGER]</text>
<polygon fill="none" stroke="black" points="1365.18,-43.2 1365.18,-74 1569.84,-74 1569.84,-43.2 1365.18,-43.2"/>
<text text-anchor="start" x="1372.18" y="-55.4" font-family="Arial" font-size="14.00">out </text>
<text text-anchor="start" x="1395.53" y="-55.4" font-family="Arial" font-size="14.00" fill="#666666">[INTEGER]</text>
</g>
<!-- game -->
<g id="node7" class="node">
<title>game</title>
<polygon fill="#efefef" stroke="none" points="1673.91,-351.2 1673.91,-386.8 1859.11,-386.8 1859.11,-351.2 1673.91,-351.2"/>
<polygon fill="none" stroke="black" points="1673.91,-351.2 1673.91,-386.8 1859.11,-386.8 1859.11,-351.2 1673.91,-351.2"/>
<text text-anchor="start" x="1712.39" y="-364.6" font-family="Arial Bold" font-size="18.00">game</text>
<text text-anchor="start" x="1751.37" y="-364.6" font-family="Arial" font-size="14.00">    </text>
<text text-anchor="start" x="1782.49" y="-364.6" font-family="Arial" font-size="14.00" fill="#666666">[table]</text>
<polygon fill="none" stroke="black" points="1673.91,-320.4 1673.91,-351.2 1859.11,-351.2 1859.11,-320.4 1673.91,-320.4"/>
<text text-anchor="start" x="1680.91" y="-332.6" font-family="Arial" font-size="14.00">game_round_id </text>
<text text-anchor="start" x="1782.1" y="-332.6" font-family="Arial" font-size="14.00" fill="#666666">[INTEGER]</text>
<polygon fill="none" stroke="black" points="1673.91,-289.6 1673.91,-320.4 1859.11,-320.4 1859.11,-289.6 1673.91,-289.6"/>
<text text-anchor="start" x="1680.91" y="-301.8" font-family="Arial" font-size="14.00">id </text>
<text text-anchor="start" x="1695.7" y="-301.8" font-family="Arial" font-size="14.00" fill="#666666">[INTEGER]</text>
<polygon fill="none" stroke="black" points="1673.91,-258.8 1673.91,-289.6 1859.11,-289.6 1859.11,-258.8 1673.91,-258.8"/>
<text text-anchor="start" x="1680.91" y="-271" font-family="Arial" font-size="14.00">planned_date </text>
<text text-anchor="start" x="1769.66" y="-271" font-family="Arial" font-size="14.00" fill="#666666">[TEXT]</text>
<polygon fill="none" stroke="black" points="1673.91,-228 1673.91,-258.8 1859.11,-258.8 1859.11,-228 1673.91,-228"/>
<text text-anchor="start" x="1680.91" y="-240.2" font-family="Arial" font-size="14.00">actual_date </text>
<text text-anchor="start" x="1757.2" y="-240.2" font-family="Arial" font-size="14.00" fill="#666666">[TEXT]</text>
<polygon fill="none" stroke="black" points="1673.91,-197.2 1673.91,-228 1859.11,-228 1859.11,-197.2 1673.91,-197.2"/>
<text text-anchor="start" x="1680.91" y="-209.4" font-family="Arial" font-size="14.00">away_team_id </text>
<text text-anchor="start" x="1775.08" y="-209.4" font-family="Arial" font-size="14.00" fill="#666666">[INTEGER]</text>
<polygon fill="none" stroke="black" points="1673.91,-166.4 1673.91,-197.2 1859.11,-197.2 1859.11,-166.4 1673.91,-166.4"/>
<text text-anchor="start" x="1680.91" y="-178.6" font-family="Arial" font-size="14.00">home_team_id </text>
<text text-anchor="start" x="1777.42" y="-178.6" font-family="Arial" font-size="14.00" fill="#666666">[INTEGER]</text>
<polygon fill="none" stroke="black" points="1673.91,-135.6 1673.91,-166.4 1859.11,-166.4 1859.11,-135.6 1673.91,-135.6"/>
<text text-anchor="start" x="1680.91" y="-147.8" font-family="Arial" font-size="14.00">game_type </text>
<text text-anchor="start" x="1754.07" y="-147.8" font-family="Arial" font-size="14.00" fill="#666666">[TEXT]</text>
<polygon fill="none" stroke="black" points="1673.91,-104.8 1673.91,-135.6 1859.11,-135.6 1859.11,-104.8 1673.91,-104.8"/>
<text text-anchor="start" x="1680.91" y="-117" font-family="Arial" font-size="14.00">away_point </text>
<text text-anchor="start" x="1755.63" y="-117" font-family="Arial" font-size="14.00" fill="#666666">[INTEGER]</text>
<polygon fill="none" stroke="black" points="1673.91,-74 1673.91,-104.8 1859.11,-104.8 1859.11,-74 1673.91,-74"/>
<text text-anchor="start" x="1680.91" y="-86.2" font-family="Arial" font-size="14.00">home_point </text>
<text text-anchor="start" x="1757.97" y="-86.2" font-family="Arial" font-size="14.00" fill="#666666">[INTEGER]</text>
</g>
<!-- player -->
<g id="node8" class="node">
<title>player</title>
<polygon fill="#efefef" stroke="none" points="1963.87,-366.6 1963.87,-402.2 2103.15,-402.2 2103.15,-366.6 1963.87,-366.6"/>
<polygon fill="none" stroke="black" points="1963.87,-366.6 1963.87,-402.2 2103.15,-402.2 2103.15,-366.6 1963.87,-366.6"/>
<text text-anchor="start" x="1976.4" y="-380" font-family="Arial Bold" font-size="18.00">player</text>
<text text-anchor="start" x="2021.37" y="-380" font-family="Arial" font-size="14.00">    </text>
<text text-anchor="start" x="2052.49" y="-380" font-family="Arial" font-size="14.00" fill="#666666">[table]</text>
<polygon fill="none" stroke="black" points="1963.87,-335.8 1963.87,-366.6 2103.15,-366.6 2103.15,-335.8 1963.87,-335.8"/>
<text text-anchor="start" x="1970.87" y="-348" font-family="Arial" font-size="14.00">id </text>
<text text-anchor="start" x="1985.66" y="-348" font-family="Arial" font-size="14.00" fill="#666666">[INTEGER]</text>
<polygon fill="none" stroke="black" points="1963.87,-305 1963.87,-335.8 2103.15,-335.8 2103.15,-305 1963.87,-305"/>
<text text-anchor="start" x="1970.87" y="-317.2" font-family="Arial" font-size="14.00">team_id </text>
<text text-anchor="start" x="2024.57" y="-317.2" font-family="Arial" font-size="14.00" fill="#666666">[INTEGER]</text>
<polygon fill="none" stroke="black" points="1963.87,-274.2 1963.87,-305 2103.15,-305 2103.15,-274.2 1963.87,-274.2"/>
<text text-anchor="start" x="1970.87" y="-286.4" font-family="Arial" font-size="14.00">name </text>
<text text-anchor="start" x="2009.78" y="-286.4" font-family="Arial" font-size="14.00" fill="#666666">[TEXT]</text>
<polygon fill="none" stroke="black" points="1963.87,-243.4 1963.87,-274.2 2103.15,-274.2 2103.15,-243.4 1963.87,-243.4"/>
<text text-anchor="start" x="1970.87" y="-255.6" font-family="Arial" font-size="14.00">age </text>
<text text-anchor="start" x="1998.12" y="-255.6" font-family="Arial" font-size="14.00" fill="#666666">[INTEGER]</text>
<polygon fill="none" stroke="black" points="1963.87,-212.6 1963.87,-243.4 2103.15,-243.4 2103.15,-212.6 1963.87,-212.6"/>
<text text-anchor="start" x="1970.87" y="-224.8" font-family="Arial" font-size="14.00">throw </text>
<text text-anchor="start" x="2008.99" y="-224.8" font-family="Arial" font-size="14.00" fill="#666666">[TEXT]</text>
<polygon fill="none" stroke="black" points="1963.87,-181.8 1963.87,-212.6 2103.15,-212.6 2103.15,-181.8 1963.87,-181.8"/>
<text text-anchor="start" x="1970.87" y="-194" font-family="Arial" font-size="14.00">mod_speed </text>
<text text-anchor="start" x="2047.92" y="-194" font-family="Arial" font-size="14.00" fill="#666666">[REAL]</text>
<polygon fill="none" stroke="black" points="1963.87,-151 1963.87,-181.8 2103.15,-181.8 2103.15,-151 1963.87,-151"/>
<text text-anchor="start" x="1970.87" y="-163.2" font-family="Arial" font-size="14.00">mod_control </text>
<text text-anchor="start" x="2051.8" y="-163.2" font-family="Arial" font-size="14.00" fill="#666666">[REAL]</text>
<polygon fill="none" stroke="black" points="1963.87,-120.2 1963.87,-151 2103.15,-151 2103.15,-120.2 1963.87,-120.2"/>
<text text-anchor="start" x="1970.87" y="-132.4" font-family="Arial" font-size="14.00">bat </text>
<text text-anchor="start" x="1994.22" y="-132.4" font-family="Arial" font-size="14.00" fill="#666666">[TEXT]</text>
<polygon fill="none" stroke="black" points="1963.87,-89.4 1963.87,-120.2 2103.15,-120.2 2103.15,-89.4 1963.87,-89.4"/>
<text text-anchor="start" x="1970.87" y="-101.6" font-family="Arial" font-size="14.00">mod_ba </text>
<text text-anchor="start" x="2025.35" y="-101.6" font-family="Arial" font-size="14.00" fill="#666666">[REAL]</text>
<polygon fill="none" stroke="black" points="1963.87,-58.6 1963.87,-89.4 2103.15,-89.4 2103.15,-58.6 1963.87,-58.6"/>
<text text-anchor="start" x="1970.87" y="-70.8" font-family="Arial" font-size="14.00">mod_slg </text>
<text text-anchor="start" x="2027.68" y="-70.8" font-family="Arial" font-size="14.00" fill="#666666">[REAL]</text>
</g>
</g>
</svg>
