<?xml version="1.0" encoding="UTF-8" standalone="no"?>
<!DOCTYPE svg PUBLIC "-//W3C//DTD SVG 1.1//EN"
 "http://www.w3.org/Graphics/SVG/1.1/DTD/svg11.dtd">
<!-- Generated by graphviz version 12.1.2 (20240928.0832)
 -->
<!-- Title: test_pitched_ball Pages: 1 -->
<svg width="307pt" height="937pt"
 viewBox="0.00 0.00 306.62 936.80" xmlns="http://www.w3.org/2000/svg" xmlns:xlink="http://www.w3.org/1999/xlink">
<g id="graph0" class="graph" transform="scale(1 1) rotate(0) translate(4 932.8)">
<title>test_pitched_ball</title>
<polygon fill="white" stroke="none" points="-4,4 -4,-932.8 302.62,-932.8 302.62,4 -4,4"/>
<!-- test_pitched_ball -->
<g id="node1" class="node">
<title>test_pitched_ball</title>
<polygon fill="#efefef" stroke="none" points="46.2,-847 46.2,-882.6 252.42,-882.6 252.42,-847 46.2,-847"/>
<polygon fill="none" stroke="black" points="46.2,-847 46.2,-882.6 252.42,-882.6 252.42,-847 46.2,-847"/>
<text text-anchor="start" x="53.2" y="-860.4" font-family="Arial Bold" font-size="18.00">test_pitched_ball</text>
<text text-anchor="start" x="176.17" y="-860.4" font-family="Arial" font-size="14.00">    </text>
<text text-anchor="start" x="207.28" y="-860.4" font-family="Arial" font-size="14.00" fill="#666666">[table]</text>
<polygon fill="none" stroke="black" points="46.2,-816.2 46.2,-847 252.42,-847 252.42,-816.2 46.2,-816.2"/>
<text text-anchor="start" x="53.2" y="-828.4" font-family="Arial" font-size="14.00">pitch_type </text>
<text text-anchor="start" x="120.91" y="-828.4" font-family="Arial" font-size="14.00" fill="#666666">[TEXT]</text>
<polygon fill="none" stroke="black" points="46.2,-785.4 46.2,-816.2 252.42,-816.2 252.42,-785.4 46.2,-785.4"/>
<text text-anchor="start" x="53.2" y="-797.6" font-family="Arial" font-size="14.00">expected_pitch_type </text>
<text text-anchor="start" x="185.52" y="-797.6" font-family="Arial" font-size="14.00" fill="#666666">[TEXT]</text>
<polygon fill="none" stroke="black" points="46.2,-754.6 46.2,-785.4 252.42,-785.4 252.42,-754.6 46.2,-754.6"/>
<text text-anchor="start" x="53.2" y="-766.8" font-family="Arial" font-size="14.00">speed_ms </text>
<text text-anchor="start" x="121.68" y="-766.8" font-family="Arial" font-size="14.00" fill="#666666">[REAL]</text>
<polygon fill="none" stroke="black" points="46.2,-723.8 46.2,-754.6 252.42,-754.6 252.42,-723.8 46.2,-723.8"/>
<text text-anchor="start" x="53.2" y="-736" font-family="Arial" font-size="14.00">spin_rate </text>
<text text-anchor="start" x="114.68" y="-736" font-family="Arial" font-size="14.00" fill="#666666">[REAL]</text>
<polygon fill="none" stroke="black" points="46.2,-693 46.2,-723.8 252.42,-723.8 252.42,-693 46.2,-693"/>
<text text-anchor="start" x="53.2" y="-705.2" font-family="Arial" font-size="14.00">spin_angle </text>
<text text-anchor="start" x="124.81" y="-705.2" font-family="Arial" font-size="14.00" fill="#666666">[REAL]</text>
<polygon fill="none" stroke="black" points="46.2,-662.2 46.2,-693 252.42,-693 252.42,-662.2 46.2,-662.2"/>
<text text-anchor="start" x="53.2" y="-674.4" font-family="Arial" font-size="14.00">spin_efficiency </text>
<text text-anchor="start" x="148.92" y="-674.4" font-family="Arial" font-size="14.00" fill="#666666">[REAL]</text>
<polygon fill="none" stroke="black" points="46.2,-631.4 46.2,-662.2 252.42,-662.2 252.42,-631.4 46.2,-631.4"/>
<text text-anchor="start" x="53.2" y="-643.6" font-family="Arial" font-size="14.00">release_point_x </text>
<text text-anchor="start" x="155.94" y="-643.6" font-family="Arial" font-size="14.00" fill="#666666">[REAL]</text>
<polygon fill="none" stroke="black" points="46.2,-600.6 46.2,-631.4 252.42,-631.4 252.42,-600.6 46.2,-600.6"/>
<text text-anchor="start" x="53.2" y="-612.8" font-family="Arial" font-size="14.00">release_point_y </text>
<text text-anchor="start" x="155.94" y="-612.8" font-family="Arial" font-size="14.00" fill="#666666">[REAL]</text>
<polygon fill="none" stroke="black" points="46.2,-569.8 46.2,-600.6 252.42,-600.6 252.42,-569.8 46.2,-569.8"/>
<text text-anchor="start" x="53.2" y="-582" font-family="Arial" font-size="14.00">release_point_z </text>
<text text-anchor="start" x="155.94" y="-582" font-family="Arial" font-size="14.00" fill="#666666">[REAL]</text>
<polygon fill="none" stroke="black" points="46.2,-539 46.2,-569.8 252.42,-569.8 252.42,-539 46.2,-539"/>
<text text-anchor="start" x="53.2" y="-551.2" font-family="Arial" font-size="14.00">flight_time </text>
<text text-anchor="start" x="120.9" y="-551.2" font-family="Arial" font-size="14.00" fill="#666666">[REAL]</text>
<polygon fill="none" stroke="black" points="46.2,-508.2 46.2,-539 252.42,-539 252.42,-508.2 46.2,-508.2"/>
<text text-anchor="start" x="53.2" y="-520.4" font-family="Arial" font-size="14.00">aim_zone </text>
<text text-anchor="start" x="117.79" y="-520.4" font-family="Arial" font-size="14.00" fill="#666666">[TEXT]</text>
<polygon fill="none" stroke="black" points="46.2,-477.4 46.2,-508.2 252.42,-508.2 252.42,-477.4 46.2,-477.4"/>
<text text-anchor="start" x="53.2" y="-489.6" font-family="Arial" font-size="14.00">aim_x </text>
<text text-anchor="start" x="94.43" y="-489.6" font-family="Arial" font-size="14.00" fill="#666666">[REAL]</text>
<polygon fill="none" stroke="black" points="46.2,-446.6 46.2,-477.4 252.42,-477.4 252.42,-446.6 46.2,-446.6"/>
<text text-anchor="start" x="53.2" y="-458.8" font-family="Arial" font-size="14.00">aim_y </text>
<text text-anchor="start" x="94.43" y="-458.8" font-family="Arial" font-size="14.00" fill="#666666">[REAL]</text>
<polygon fill="none" stroke="black" points="46.2,-415.8 46.2,-446.6 252.42,-446.6 252.42,-415.8 46.2,-415.8"/>
<text text-anchor="start" x="53.2" y="-428" font-family="Arial" font-size="14.00">actual_x </text>
<text text-anchor="start" x="109.23" y="-428" font-family="Arial" font-size="14.00" fill="#666666">[REAL]</text>
<polygon fill="none" stroke="black" points="46.2,-385 46.2,-415.8 252.42,-415.8 252.42,-385 46.2,-385"/>
<text text-anchor="start" x="53.2" y="-397.2" font-family="Arial" font-size="14.00">actual_y </text>
<text text-anchor="start" x="109.23" y="-397.2" font-family="Arial" font-size="14.00" fill="#666666">[REAL]</text>
<polygon fill="none" stroke="black" points="46.2,-354.2 46.2,-385 252.42,-385 252.42,-354.2 46.2,-354.2"/>
<text text-anchor="start" x="53.2" y="-366.4" font-family="Arial" font-size="14.00">pitch_result </text>
<text text-anchor="start" x="128.68" y="-366.4" font-family="Arial" font-size="14.00" fill="#666666">[TEXT]</text>
<polygon fill="none" stroke="black" points="46.2,-323.4 46.2,-354.2 252.42,-354.2 252.42,-323.4 46.2,-323.4"/>
<text text-anchor="start" x="53.2" y="-335.6" font-family="Arial" font-size="14.00">movement_x </text>
<text text-anchor="start" x="137.23" y="-335.6" font-family="Arial" font-size="14.00" fill="#666666">[REAL]</text>
<polygon fill="none" stroke="black" points="46.2,-292.6 46.2,-323.4 252.42,-323.4 252.42,-292.6 46.2,-292.6"/>
<text text-anchor="start" x="53.2" y="-304.8" font-family="Arial" font-size="14.00">movement_z </text>
<text text-anchor="start" x="137.23" y="-304.8" font-family="Arial" font-size="14.00" fill="#666666">[REAL]</text>
<polygon fill="none" stroke="black" points="46.2,-261.8 46.2,-292.6 252.42,-292.6 252.42,-261.8 46.2,-261.8"/>
<text text-anchor="start" x="53.2" y="-274" font-family="Arial" font-size="14.00">location_bias_x </text>
<text text-anchor="start" x="153.6" y="-274" font-family="Arial" font-size="14.00" fill="#666666">[REAL]</text>
<polygon fill="none" stroke="black" points="46.2,-231 46.2,-261.8 252.42,-261.8 252.42,-231 46.2,-231"/>
<text text-anchor="start" x="53.2" y="-243.2" font-family="Arial" font-size="14.00">location_bias_y </text>
<text text-anchor="start" x="153.6" y="-243.2" font-family="Arial" font-size="14.00" fill="#666666">[REAL]</text>
<polygon fill="none" stroke="black" points="46.2,-200.2 46.2,-231 252.42,-231 252.42,-200.2 46.2,-200.2"/>
<text text-anchor="start" x="53.2" y="-212.4" font-family="Arial" font-size="14.00">location_bias_timing </text>
<text text-anchor="start" x="183.94" y="-212.4" font-family="Arial" font-size="14.00" fill="#666666">[REAL]</text>
<polygon fill="none" stroke="black" points="46.2,-169.4 46.2,-200.2 252.42,-200.2 252.42,-169.4 46.2,-169.4"/>
<text text-anchor="start" x="53.2" y="-181.6" font-family="Arial" font-size="14.00">crossfire_multiplier </text>
<text text-anchor="start" x="173.79" y="-181.6" font-family="Arial" font-size="14.00" fill="#666666">[REAL]</text>
<polygon fill="none" stroke="black" points="46.2,-138.6 46.2,-169.4 252.42,-169.4 252.42,-138.6 46.2,-138.6"/>
<text text-anchor="start" x="53.2" y="-150.8" font-family="Arial" font-size="14.00">release_x_factor </text>
<text text-anchor="start" x="160.59" y="-150.8" font-family="Arial" font-size="14.00" fill="#666666">[REAL]</text>
<polygon fill="none" stroke="black" points="46.2,-107.8 46.2,-138.6 252.42,-138.6 252.42,-107.8 46.2,-107.8"/>
<text text-anchor="start" x="53.2" y="-120" font-family="Arial" font-size="14.00">disp_x </text>
<text text-anchor="start" x="97.56" y="-120" font-family="Arial" font-size="14.00" fill="#666666">[REAL]</text>
<polygon fill="none" stroke="black" points="46.2,-77 46.2,-107.8 252.42,-107.8 252.42,-77 46.2,-77"/>
<text text-anchor="start" x="53.2" y="-89.2" font-family="Arial" font-size="14.00">disp_y </text>
<text text-anchor="start" x="97.56" y="-89.2" font-family="Arial" font-size="14.00" fill="#666666">[REAL]</text>
<polygon fill="none" stroke="black" points="46.2,-46.2 46.2,-77 252.42,-77 252.42,-46.2 46.2,-46.2"/>
<text text-anchor="start" x="53.2" y="-58.4" font-family="Arial" font-size="14.00">timing </text>
<text text-anchor="start" x="94.43" y="-58.4" font-family="Arial" font-size="14.00" fill="#666666">[REAL]</text>
<polygon fill="none" stroke="black" stroke-width="3" points="44.7,-44.7 44.7,-884.1 253.92,-884.1 253.92,-44.7 44.7,-44.7"/>
</g>
</g>
</svg>
